<?xml version="1.0" encoding="UTF-8" standalone="no"?><svg xmlns="http://www.w3.org/2000/svg" xmlns:xlink="http://www.w3.org/1999/xlink" contentStyleType="text/css" height="415px" preserveAspectRatio="none" style="width:449px;height:415px;background:#FFFFFF;" version="1.1" viewBox="0 0 449 415" width="449px" zoomAndPan="magnify"><defs/><g><line style="stroke:#181818;stroke-width:0.5;stroke-dasharray:5.0,5.0;" x1="48" x2="48" y1="81.2969" y2="334.3594"/><line style="stroke:#181818;stroke-width:0.5;stroke-dasharray:5.0,5.0;" x1="417.5" x2="417.5" y1="81.2969" y2="334.3594"/><text fill="#000000" font-family="sans-serif" font-size="14" lengthAdjust="spacing" textLength="80" x="5" y="77.9951">Funcionário</text><ellipse cx="48" cy="13.5" fill="#E2E2F0" rx="8" ry="8" style="stroke:#181818;stroke-width:0.5;"/><path d="M48,21.5 L48,48.5 M35,29.5 L61,29.5 M48,48.5 L35,63.5 M48,48.5 L61,63.5 " fill="none" style="stroke:#181818;stroke-width:0.5;"/><text fill="#000000" font-family="sans-serif" font-size="14" lengthAdjust="spacing" textLength="80" x="5" y="346.3545">Funcionário</text><ellipse cx="48" cy="358.1563" fill="#E2E2F0" rx="8" ry="8" style="stroke:#181818;stroke-width:0.5;"/><path d="M48,366.1563 L48,393.1563 M35,374.1563 L61,374.1563 M48,393.1563 L35,408.1563 M48,393.1563 L61,408.1563 " fill="none" style="stroke:#181818;stroke-width:0.5;"/><text fill="#000000" font-family="sans-serif" font-size="14" lengthAdjust="spacing" textLength="55" x="387.5" y="77.9951">Sistema</text><path d="M397.5,37 L397.5,61 M397.5,49 L414.5,49 " fill="none" style="stroke:#181818;stroke-width:0.5;"/><ellipse cx="426.5" cy="49" fill="#E2E2F0" rx="12" ry="12" style="stroke:#181818;stroke-width:0.5;"/><text fill="#000000" font-family="sans-serif" font-size="14" lengthAdjust="spacing" textLength="55" x="387.5" y="346.3545">Sistema</text><path d="M397.5,353.6563 L397.5,377.6563 M397.5,365.6563 L414.5,365.6563 " fill="none" style="stroke:#181818;stroke-width:0.5;"/><ellipse cx="426.5" cy="365.6563" fill="#E2E2F0" rx="12" ry="12" style="stroke:#181818;stroke-width:0.5;"/><polygon fill="#181818" points="406,108.4297,416,112.4297,406,116.4297,410,112.4297" style="stroke:#181818;stroke-width:1.0;"/><line style="stroke:#181818;stroke-width:1.0;" x1="48" x2="412" y1="112.4297" y2="112.4297"/><text fill="#000000" font-family="sans-serif" font-size="13" lengthAdjust="spacing" textLength="258" x="55" y="107.3638">seleciona opção manter dados do ponto</text><polygon fill="#181818" points="59,137.5625,49,141.5625,59,145.5625,55,141.5625" style="stroke:#181818;stroke-width:1.0;"/><line style="stroke:#181818;stroke-width:1.0;" x1="53" x2="417" y1="141.5625" y2="141.5625"/><text fill="#000000" font-family="sans-serif" font-size="13" lengthAdjust="spacing" textLength="342" x="65" y="136.4966">mostra lista com últimos registros de ponto e opções</text><polygon fill="#181818" points="406,166.6953,416,170.6953,406,174.6953,410,170.6953" style="stroke:#181818;stroke-width:1.0;"/><line style="stroke:#181818;stroke-width:1.0;" x1="48" x2="412" y1="170.6953" y2="170.6953"/><text fill="#000000" font-family="sans-serif" font-size="13" lengthAdjust="spacing" textLength="144" x="55" y="165.6294">seleciona inserir ponto</text><polygon fill="#181818" points="59,195.8281,49,199.8281,59,203.8281,55,199.8281" style="stroke:#181818;stroke-width:1.0;"/><line style="stroke:#181818;stroke-width:1.0;" x1="53" x2="417" y1="199.8281" y2="199.8281"/><text fill="#000000" font-family="sans-serif" font-size="13" lengthAdjust="spacing" textLength="340" x="65" y="194.7622">mostra tela com campos do ponto e lista de projetos</text><polygon fill="#181818" points="406,224.9609,416,228.9609,406,232.9609,410,228.9609" style="stroke:#181818;stroke-width:1.0;"/><line style="stroke:#181818;stroke-width:1.0;" x1="48" x2="412" y1="228.9609" y2="228.9609"/><text fill="#000000" font-family="sans-serif" font-size="13" lengthAdjust="spacing" textLength="134" x="55" y="223.895">preenche os campos</text><polygon fill="#181818" points="59,254.0938,49,258.0938,59,262.0938,55,258.0938" style="stroke:#181818;stroke-width:1.0;"/><line style="stroke:#181818;stroke-width:1.0;" x1="53" x2="417" y1="258.0938" y2="258.0938"/><text fill="#000000" font-family="sans-serif" font-size="13" lengthAdjust="spacing" textLength="302" x="65" y="253.0278">mostra dados preenchidos e pede confirmação</text><polygon fill="#181818" points="406,283.2266,416,287.2266,406,291.2266,410,287.2266" style="stroke:#181818;stroke-width:1.0;"/><line style="stroke:#181818;stroke-width:1.0;" x1="48" x2="412" y1="287.2266" y2="287.2266"/><text fill="#000000" font-family="sans-serif" font-size="13" lengthAdjust="spacing" textLength="56" x="55" y="282.1606">confirma</text><polygon fill="#181818" points="59,312.3594,49,316.3594,59,320.3594,55,316.3594" style="stroke:#181818;stroke-width:1.0;"/><line style="stroke:#181818;stroke-width:1.0;" x1="53" x2="417" y1="316.3594" y2="316.3594"/><text fill="#000000" font-family="sans-serif" font-size="13" lengthAdjust="spacing" textLength="346" x="65" y="311.2935">mostra mensagem de sucesso e volta para tela inicial</text><!--MD5=[b1c6cffe16f2c414fcb9d0118fd6c33c]
@startuml teste
actor Funcionário
boundary Sistema

Funcionário -> Sistema: seleciona opção manter dados do ponto
Sistema -> Funcionário: mostra lista com últimos registros de ponto e opções
Funcionário -> Sistema: seleciona inserir ponto
Sistema -> Funcionário: mostra tela com campos do ponto e lista de projetos
Funcionário -> Sistema: preenche os campos
Sistema -> Funcionário: mostra dados preenchidos e pede confirmação
Funcionário -> Sistema: confirma
Sistema -> Funcionário: mostra mensagem de sucesso e volta para tela inicial

@enduml

PlantUML version 1.2022.7(Mon Aug 22 14:01:30 BRT 2022)
(GPL source distribution)
Java Runtime: OpenJDK Runtime Environment
JVM: OpenJDK 64-Bit Server VM
Default Encoding: UTF-8
Language: pt
Country: BR
--></g></svg>